<svg xmlns="http://www.w3.org/2000/svg" version="1.1" xmlns:xlink="http://www.w3.org/1999/xlink" xmlns:svgjs="http://svgjs.dev/svgjs" viewBox="0 0 9.832475218472737 6.1884110607970095"><g transform="matrix(1,0,0,1,0.6465513299394932,4.457359730857516)"><rect width="9.832475218472737" height="9.832475218472737" x="-0.6465513299394932" y="-6.27939180969538" fill="#4e888f"></rect><g><path d=" M 1.0635000000000001 1.0739999999999998 L 0.7695 1.0739999999999998 L 0.378 0.4829999999999999 L 0.378 1.0739999999999998 L 0.084 1.0739999999999998 L 0.084 0.016499999999999737 L 0.378 0.016499999999999737 L 0.7695 0.6149999999999998 L 0.7695 0.016499999999999737 L 1.0635000000000001 0.016499999999999737 L 1.0635000000000001 1.0739999999999998 M 1.5405219726562502 0.2519999999999998 L 1.5405219726562502 0.4244999999999999 L 1.8780219726562501 0.4244999999999999 L 1.8780219726562501 0.6479999999999999 L 1.5405219726562502 0.6479999999999999 L 1.5405219726562502 0.8384999999999998 L 1.92302197265625 0.8384999999999998 L 1.92302197265625 1.0739999999999998 L 1.2465219726562502 1.0739999999999998 L 1.2465219726562502 0.016499999999999737 L 1.92302197265625 0.016499999999999737 L 1.92302197265625 0.2519999999999998 L 1.5405219726562502 0.2519999999999998 M 2.618982421875 1.0739999999999998 L 2.4089824218750002 0.6839999999999998 L 2.3774824218750004 0.6839999999999998 L 2.3774824218750004 1.0739999999999998 L 2.0834824218750003 1.0739999999999998 L 2.0834824218750003 0.016499999999999737 L 2.546982421875 0.016499999999999737 Q 2.674482421875 0.016499999999999737 2.7629824218750003 0.06074999999999986 Q 2.851482421875 0.10499999999999987 2.8964824218750005 0.1822499999999998 Q 2.9414824218750004 0.25949999999999984 2.9414824218750004 0.3554999999999998 Q 2.9414824218750004 0.4634999999999998 2.8822324218750004 0.5452499999999998 Q 2.8229824218750004 0.6269999999999998 2.7089824218750005 0.6614999999999998 L 2.947482421875 1.0739999999999998 L 2.618982421875 1.0739999999999998 M 2.3774824218750004 0.4829999999999999 L 2.522982421875 0.4829999999999999 Q 2.582982421875 0.4829999999999999 2.6129824218750004 0.4544999999999998 Q 2.642982421875 0.4259999999999998 2.642982421875 0.3719999999999998 Q 2.642982421875 0.32099999999999984 2.6122324218750004 0.29174999999999984 Q 2.581482421875 0.26249999999999984 2.522982421875 0.26249999999999984 L 2.3774824218750004 0.26249999999999984 L 2.3774824218750004 0.4829999999999999 M 3.8002485351562503 0.08324999999999982 Q 3.92549853515625 0.1499999999999998 3.9929985351562505 0.2699999999999998 Q 4.060498535156251 0.3899999999999998 4.060498535156251 0.5444999999999999 Q 4.060498535156251 0.6974999999999998 3.9922485351562504 0.8174999999999999 Q 3.9239985351562505 0.9374999999999998 3.7987485351562507 1.00575 Q 3.6734985351562504 1.0739999999999998 3.5084985351562503 1.0739999999999998 L 3.0899985351562504 1.0739999999999998 L 3.0899985351562504 0.016499999999999737 L 3.5084985351562503 0.016499999999999737 Q 3.6749985351562504 0.016499999999999737 3.8002485351562503 0.08324999999999982 M 3.6884985351562505 0.7439999999999998 Q 3.76199853515625 0.6734999999999998 3.76199853515625 0.5444999999999999 Q 3.76199853515625 0.4139999999999998 3.6884985351562505 0.3427499999999998 Q 3.6149985351562504 0.27149999999999985 3.4859985351562504 0.27149999999999985 L 3.3839985351562505 0.27149999999999985 L 3.3839985351562505 0.8144999999999998 L 3.4859985351562504 0.8144999999999998 Q 3.6149985351562504 0.8144999999999998 3.6884985351562505 0.7439999999999998 M 4.829945068359375 0.8354999999999998 L 5.269445068359375 0.8354999999999998 L 5.269445068359375 1.0739999999999998 L 4.499945068359375 1.0739999999999998 L 4.499945068359375 0.8504999999999998 L 4.934945068359375 0.25349999999999984 L 4.499945068359375 0.25349999999999984 L 4.499945068359375 0.016499999999999737 L 5.269445068359375 0.016499999999999737 L 5.269445068359375 0.23999999999999988 L 4.829945068359375 0.8354999999999998 M 5.6774091796874995 1.0147499999999998 Q 5.5529091796875 0.9449999999999998 5.4801591796875 0.8212499999999998 Q 5.4074091796875 0.6974999999999998 5.4074091796875 0.5414999999999999 Q 5.4074091796875 0.38549999999999984 5.4801591796875 0.2617499999999998 Q 5.5529091796875 0.1379999999999998 5.6774091796874995 0.06899999999999973 Q 5.8019091796875 -2.220446049250313e-16 5.9504091796875 -2.220446049250313e-16 Q 6.1004091796874995 -2.220446049250313e-16 6.2241591796875 0.06899999999999973 Q 6.3479091796875 0.1379999999999998 6.4199091796875 0.2617499999999998 Q 6.4919091796875 0.38549999999999984 6.4919091796875 0.5414999999999999 Q 6.4919091796875 0.6974999999999998 6.4199091796875 0.8212499999999998 Q 6.3479091796875 0.9449999999999998 6.2234091796875 1.0147499999999998 Q 6.0989091796874995 1.0844999999999998 5.9504091796875 1.0844999999999998 Q 5.8019091796875 1.0844999999999998 5.6774091796874995 1.0147499999999998 M 6.1281591796875 0.7379999999999998 Q 6.1934091796874995 0.6644999999999999 6.1934091796874995 0.5414999999999999 Q 6.1934091796874995 0.41549999999999987 6.1281591796875 0.3427499999999998 Q 6.0629091796875 0.2699999999999998 5.9504091796875 0.2699999999999998 Q 5.8364091796875 0.2699999999999998 5.7719091796874995 0.3427499999999998 Q 5.7074091796875 0.41549999999999987 5.7074091796875 0.5414999999999999 Q 5.7074091796875 0.6659999999999998 5.7719091796874995 0.7387499999999998 Q 5.8364091796875 0.8114999999999999 5.9504091796875 0.8114999999999999 Q 6.0629091796875 0.8114999999999999 6.1281591796875 0.7379999999999998 M 7.618390136718751 1.0739999999999998 L 7.32439013671875 1.0739999999999998 L 6.9328901367187505 0.4829999999999999 L 6.9328901367187505 1.0739999999999998 L 6.63889013671875 1.0739999999999998 L 6.63889013671875 0.016499999999999737 L 6.9328901367187505 0.016499999999999737 L 7.32439013671875 0.6149999999999998 L 7.32439013671875 0.016499999999999737 L 7.618390136718751 0.016499999999999737 L 7.618390136718751 1.0739999999999998 M 8.095412109375001 0.2519999999999998 L 8.095412109375001 0.4244999999999999 L 8.432912109375001 0.4244999999999999 L 8.432912109375001 0.6479999999999999 L 8.095412109375001 0.6479999999999999 L 8.095412109375001 0.8384999999999998 L 8.477912109375001 0.8384999999999998 L 8.477912109375001 1.0739999999999998 L 7.801412109375001 1.0739999999999998 L 7.801412109375001 0.016499999999999737 L 8.477912109375001 0.016499999999999737 L 8.477912109375001 0.2519999999999998 L 8.095412109375001 0.2519999999999998" fill="#ffffff" fill-rule="nonzero"></path></g><g></g><g clip-path="url(#SvgjsClipPath1002)"><g clip-path="url(#SvgjsClipPath10007cdc3375-cc1a-489d-a06a-7778d30165f0)"><path d=" M 4.408190539102119 -1.588257065915586 C 4.463816768673343 -1.6393927825042698 4.427219087865636 -1.6045071097711552 4.572711708499957 -1.7458460058966274 C 4.69937224031375 -1.8762112109210156 4.681634714032714 -1.8574633192189076 4.730272582774859 -1.9103671752944666 C 4.679866574545838 -1.9607731835234874 4.35528668302656 -1.639336651091988 4.408190539102119 -1.588257065915586 Z" fill="#ffffff" transform="matrix(1,0,0,1,0,0)" fill-rule="nonzero"></path></g><g clip-path="url(#SvgjsClipPath10007cdc3375-cc1a-489d-a06a-7778d30165f0)"><path d=" M 6.441270291947474 -2.784305198815333 C 6.525181818763923 -2.7828547200995892 6.607318688664511 -2.759904712333248 6.679828794144954 -2.7176491467307424 C 6.644825966428755 -2.8194762242965385 6.5490297028976805 -2.887844513146448 6.441354489065896 -2.887844513146448 C 6.333679275234111 -2.887844513146448 6.237883011703038 -2.8194762242965385 6.202880183986837 -2.7176491467307424 C 6.275342181483181 -2.7598735267954173 6.357416607929829 -2.7828222862504197 6.441270291947474 -2.784305198815333 Z" fill="#ffffff" transform="matrix(1,0,0,1,0,0)" fill-rule="nonzero"></path></g><g clip-path="url(#SvgjsClipPath10007cdc3375-cc1a-489d-a06a-7778d30165f0)"><path d=" M 3.7989401901958932 -1.588257065915586 C 3.8545664197671177 -1.6393927825042698 3.8179687389594097 -1.6045071097711552 3.9634613595937327 -1.7458460058966274 C 4.090121891407524 -1.8762112109210156 4.072384365126488 -1.8574633192189076 4.121022233868633 -1.9103671752944666 C 4.070616225639613 -1.9607731835234874 3.7460643998264755 -1.639336651091988 3.7989401901958932 -1.588257065915586 Z" fill="#ffffff" transform="matrix(1,0,0,1,0,0)" fill-rule="nonzero"></path></g><g clip-path="url(#SvgjsClipPath10007cdc3375-cc1a-489d-a06a-7778d30165f0)"><path d=" M 5.7832417457683984 -2.193802741611215 C 5.867156317450693 -2.1923474766521363 5.9492942810231515 -2.1693875000111755 6.02180024796588 -2.1271186238204844 C 5.986871282605396 -2.2290718468423405 5.891012299750915 -2.297559339320295 5.7832417457683984 -2.297559339320295 C 5.675471191785883 -2.297559339320295 5.579612208931401 -2.2290718468423405 5.544683243570917 -2.1271186238204844 C 5.617189210513646 -2.1693875000111755 5.699327174086105 -2.1923474766521363 5.7832417457683984 -2.1938027416112154 Z" fill="#ffffff" transform="matrix(1,0,0,1,0,0)" fill-rule="nonzero"></path></g><g clip-path="url(#SvgjsClipPath10007cdc3375-cc1a-489d-a06a-7778d30165f0)"><path d=" M 6.441270291947474 -1.7068627400669452 C 6.334749894863888 -1.703251748678022 6.240758993188396 -1.6361754181411357 6.202711789749992 -1.5366161666163665 C 6.349262791126317 -1.6255308259766652 6.533109398531785 -1.6255308259766652 6.67966039990811 -1.5366161666163665 C 6.641636894724549 -1.6361204451388445 6.547728565468156 -1.7031851879301412 6.4412702919474745 -1.7068627400669452 Z" fill="#ffffff" transform="matrix(1,0,0,1,0,0)" fill-rule="nonzero"></path></g><g clip-path="url(#SvgjsClipPath10007cdc3375-cc1a-489d-a06a-7778d30165f0)"><path d=" M 7.96734306335783 -2.037953875410908 C 7.967192010520651 -2.793840016439729 7.4302081950198255 -3.443091987085612 6.687771388983327 -3.585047860720687 C 6.931930498917823 -3.5616091186261074 7.16897420368424 -3.4897661282098826 7.385063858052992 -3.3737130934799557 L 7.467548968401036 -3.470118794073879 C 7.485635824525607 -3.489237939168219 7.493031248131692 -3.516099466585175 7.487279011421392 -3.541781908961983 C 7.481526774711093 -3.5674643513387903 7.463380028526412 -3.588605059661694 7.438865816725057 -3.598182611194715 C 6.9231303035519405 -3.8399921278715654 6.334782599208721 -3.8768102582630606 5.792924414387002 -3.701183752731745 C 5.731656977881461 -3.6807799843673252 5.721384929433898 -3.6497954447877934 5.721104272372489 -3.613141632567804 L 2.8182682862212607 -3.613141632567804 C 2.817987629159852 -3.649795444787794 2.8077155807122893 -3.6807799843673252 2.7464481442067483 -3.7011837527317453 C 2.2045899593850296 -3.8768102582630606 1.61624225504181 -3.8399921278715654 1.100506741868694 -3.5981826111947153 C 1.0759925300673387 -3.588605059661694 1.0578457838826574 -3.5674643513387907 1.0520935471723576 -3.541781908961983 C 1.0463413104620578 -3.516099466585175 1.0537367340681425 -3.489237939168219 1.0718235901927142 -3.4701187940738794 L 1.1543087005407608 -3.373713093479956 C 1.3703943068062499 -3.489775876971028 1.6074400145046759 -3.561619474434065 1.8516011696109287 -3.585047860720784 C 1.1989728982854746 -3.4608800345447395 0.694426733253351 -2.940567214458652 0.590393268915149 -2.2844282445076782 C 0.486359804576947 -1.6282892745567046 0.8052109103597752 -0.9774235159431273 1.3874214927512865 -0.657467038681188 C 1.9696320751427976 -0.33751056141924796 2.6900006981319766 -0.4172683849053187 3.1881181617457783 -0.8568366981781095 C 2.744455479070746 -0.3045316670317293 1.9858955734950383 -0.2263686754293781 1.4602529631824948 -0.4414642472930832 C 1.9921822916705956 -0.14149798005935788 2.994156066606156 -0.13333085957236124 3.527853534581132 -0.9960987320491568 L 5.026057059793594 -0.9960987320491568 C 5.541146964597167 -0.16583094728350112 6.518450983834894 -0.11466716498867591 7.086837664599997 -0.4259439117971775 C 6.596080727020569 -0.2300172172276933 5.885625441770329 -0.291874033562193 5.442832795985664 -0.7815925400144099 C 5.91948083926107 -0.42093830327585335 6.559242301493081 -0.3612801780218251 7.094354839666763 -0.6275871571362757 C 7.629467377840444 -0.8938941362507267 7.96764283522342 -1.4402376000991395 7.96734306335783 -2.0379538754109072 Z M 7.517113005445831 -2.0500501947576275 C 7.481161544747355 -2.1499209266578245 7.413780154350498 -2.235432854868277 7.325087444029929 -2.2937447211788893 C 7.388693797982111 -2.2388494202225306 7.42725963400966 -2.160461598005252 7.43193358730826 -2.076572287060759 C 7.430257018502735 -1.894047528263802 7.281817263912605 -1.7469649950226858 7.099284805273475 -1.746964995022687 C 6.916752346634347 -1.746964995022688 6.76831259204422 -1.894047528263806 6.766636023238696 -2.076572287060758 C 6.771312164552709 -2.159912180082948 6.809433757125274 -2.2378352655113405 6.872359538271391 -2.2926782243455364 C 6.784225844112638 -2.2344565640081337 6.7172803343145375 -2.1492979375737846 6.6815127365134055 -2.0499098662269226 C 6.73073998508451 -2.5914096005090634 7.46477046349309 -2.5973033987986485 7.517113005445831 -2.0500501947576275 Z M 6.773933106835326 -1.4860698298566417 C 6.775031427317438 -1.3664978323247183 6.711870231872737 -1.255535771305785 6.608497017131364 -1.1954304689133153 C 6.50512380238999 -1.135325166520846 6.377444847211099 -1.1353251665208455 6.2740716324697265 -1.1954304689133148 C 6.170698417728354 -1.2555357713057838 6.107537222283652 -1.3664978323247166 6.1086355427657635 -1.4860698298566417 C 6.1132918961602645 -1.5694087640374064 6.151405315347521 -1.6473358292901614 6.214330992092317 -1.7021757671414184 C 6.126195143734935 -1.643968844869788 6.059248123662491 -1.5588181424276457 6.023484190334331 -1.4594354747289464 C 6.072739504611577 -2.000766814774242 6.806769983020155 -2.0067167444761087 6.859112524972897 -1.4594354747289464 C 6.823163036790352 -1.5592992115326956 6.755793112690662 -1.6448090859600617 6.667115029263137 -1.7031300011502086 C 6.730660272222261 -1.648238236465811 6.769207767664854 -1.5699076190845647 6.773933106835326 -1.4860698298566422 Z M 6.8590844592667555 -2.6404684548433224 C 6.823135087776676 -2.7403248318390236 6.755764448722703 -2.825825765659606 6.6670869635569945 -2.8841349155584433 C 6.730673466224647 -2.8292361826741526 6.769235732606419 -2.7508657453230168 6.773933106835326 -2.666990547146454 C 6.775031427317422 -2.547418549614544 6.711870231872717 -2.4364564885956277 6.60849701713135 -2.3763511862031677 C 6.505123802389985 -2.3162458838107076 6.377444847211106 -2.3162458838107067 6.27407163246974 -2.3763511862031654 C 6.170698417728374 -2.436456488595624 6.107537222283667 -2.54741854961454 6.108635542765762 -2.6669905471464546 C 6.113298195178607 -2.7503278368596593 6.1514104805893925 -2.828252583982082 6.214330992092315 -2.883096484431231 C 6.126195143734934 -2.8248895621596004 6.059248123662489 -2.739738859717458 6.02348419033433 -2.640356192018759 C 6.0727114389054355 -3.1819120577131814 6.806741917314014 -3.1877497245904842 6.8590844592667555 -2.6404684548433224 Z M 6.201083978793822 -2.0500501947576275 C 6.165123734951316 -2.1499079653529134 6.097756248978639 -2.2354147451659165 6.009086483084061 -2.2937447211788893 C 6.072661521648839 -2.238828346388944 6.111212257884599 -2.1604506277887547 6.115904560656251 -2.076572287060759 C 6.114227991850726 -1.894047528263802 5.965788237260596 -1.7469649950226858 5.783255778621467 -1.746964995022687 C 5.60072331998234 -1.746964995022688 5.452283565392212 -1.894047528263806 5.4506069965866875 -2.076572287060758 C 5.4552633499811884 -2.159911221241524 5.493376769168444 -2.237838286494279 5.55630244591324 -2.2926782243455364 C 5.468167978177113 -2.2344698024245027 5.4012213605866055 -2.1493196119038718 5.365455644155257 -2.049937931933064 C 5.414710958432502 -2.5914096005090634 6.148685305428798 -2.5973033987986485 6.201083978793822 -2.0500501947576275 Z M 2.4564452026530343 -2.870242391018708 C 2.6597723476300867 -2.7937109221970764 2.8195430174111875 -2.6322078487721283 2.893877298564792 -2.4280671907691413 L 2.5448241112906658 -2.4280671907691413 C 2.521384567365944 -2.4280671907691413 2.4989050461362217 -2.437378513338146 2.4823307856791303 -2.4539527737952374 C 2.465756525222039 -2.4705270342523287 2.4564452026530343 -2.493006555482051 2.4564452026530343 -2.5164460994067728 Z M 1.9601312552577106 -2.8571076405447755 L 1.9601312552577106 -3.001505698639604 C 2.028941878818414 -3.0184339661692334 2.099595586403092 -3.026711782456843 2.170455657077466 -3.026147388631297 C 2.2386878577194773 -3.026459402647675 2.3066924142359184 -3.0182569953040868 2.372893595471634 -3.001730224288731 L 2.372893595471634 -2.6067896074742665 C 2.307809222930933 -2.811136013886014 2.288415819987585 -2.888906085602393 2.1664983925116017 -2.887278274646222 C 2.0584454238692134 -2.885818857926896 2.021005771877279 -2.7976925406445323 1.9601312552577104 -2.6067896074742665 Z M 2.3426387642517654 -2.183979744461907 C 2.342638762816737 -2.087676617196114 2.2645696540675733 -2.0096075107735905 2.168266529400129 -2.009607512208619 C 2.071963404732685 -2.0096075136436475 1.9938942983101609 -2.087676622392811 1.9938942997451892 -2.1839797470602553 C 1.9938943011802175 -2.2802828717277004 2.0719634099293813 -2.358351978150224 2.1682665345968255 -2.3583519767151953 C 2.21451292336218 -2.3583519767151953 2.2588651829367317 -2.339980669277524 2.291566319875413 -2.3072795323388426 C 2.324267456814094 -2.2745783954001615 2.3426387642517654 -2.2302261358256095 2.3426387642517654 -2.183979744461907 Z M 1.8346494831018356 -2.87158954491347 L 1.8346494831018356 -2.516530296525196 C 1.8346569281343597 -2.493085890279075 1.8253488923605763 -2.4705991582082607 1.8087738248946565 -2.4540188271451826 C 1.7921987574287366 -2.4374384960821045 1.7697149818924265 -2.428123320999293 1.7462705744641918 -2.428123322181423 L 1.3936249768040456 -2.428123322181423 C 1.4683998464858183 -2.633535504596036 1.629662882758705 -2.7957118926716644 1.8346494831018356 -2.871645676325752 Z M 1.289585404139803 -2.33107211034626 C 1.3024333894015714 -2.2595312345279295 1.3275070634716353 -2.1907376554625433 1.3637069340578667 -2.1277080036494436 C 1.522141299429074 -2.18610201082204 1.6866383801476197 -2.226499021831213 1.854099017457465 -2.2481379486999584 C 1.8279607866343586 -2.1209172519998614 1.8811475541157372 -1.9904940077857458 1.9887980030766201 -1.9178325075401519 C 2.0964484520375035 -1.8451710072945577 2.2372985695411325 -1.8446239554988966 2.345510186397785 -1.916447062899574 C 2.4537218032544375 -1.9882701703002508 2.5079200599725042 -2.1182763387507357 2.4827708350131794 -2.2456962322657024 C 2.649557572112463 -2.223134640892499 2.813651399990954 -2.183850661241093 2.9725735385838195 -2.128437712009105 C 3.006813845158467 -2.1918215080466315 3.030852249648766 -2.2602049912696267 3.0438043007693727 -2.33107211034626 C 3.0752690962829123 -2.1918500034850643 3.0732684665581034 -2.0471506112733673 3.0379666338920694 -1.9088516271628595 L 2.5381444732291367 -1.9088516271628595 C 2.4423047372601774 -1.9087433597871393 2.3646382824173724 -1.8310769049443338 2.3645300150416517 -1.7352371689753752 L 2.3645300150416517 -1.2392600100537416 C 2.294783333968864 -1.2215481336690148 2.223048392898121 -1.2128795720853183 2.151090319840258 -1.213467626110273 C 2.080692184681048 -1.2129701775728878 2.0105255232392616 -1.2215829984785551 1.9423375975643928 -1.2390916158168959 L 1.9423375975643928 -1.7352371689753752 C 1.9422293301886742 -1.8310769049443307 1.8645628753458703 -1.9087433597871377 1.7687231393769116 -1.9088516271628595 L 1.2948898226004293 -1.9088516271628595 C 1.2653578169855648 -2.0478718237627955 1.2635552306903803 -2.191353877862042 1.2895854041398032 -2.3310721103462604 Z M 2.8894709827006735 -1.806580193985492 C 2.813298108015581 -1.6076303876413829 2.655579494527235 -1.4508210212446584 2.456192611297767 -1.3757996704291235 L 2.456192611297767 -1.718201285347861 C 2.4561926101930283 -1.7416456930678281 2.46550778535006 -1.7641294685733881 2.4820881164678537 -1.7807045359845755 C 2.498668447585647 -1.7972796033957628 2.521155179687188 -1.8065876390953153 2.5445995859332715 -1.8065801939853996 Z M 1.834986271575526 -1.7181170882294383 L 1.834986271575526 -1.374396385122079 C 1.6339371359793096 -1.4488652886409574 1.474735586938982 -1.6063690696522022 1.3981154897865866 -1.8066082596916333 L 1.746495100113331 -1.8066082596916333 C 1.7699712683214865 -1.8066306286141667 1.792492343154663 -1.7973146618144953 1.8090925084265257 -1.780714496542633 C 1.8256926736983878 -1.7641143312707706 1.8350086404980595 -1.7415932564375938 1.8349862715755263 -1.7181170882294383 Z M 1.109347439303071 -1.1117013756434417 C 0.9316073223128771 -1.3012852206250871 0.7909420031347861 -1.6216833219293743 0.7965551443629622 -2.037953875410908 C 0.9934922043535178 -0.31850838868988784 3.300156460660172 -0.30691725205370446 3.4978793604226723 -2.037953875410908 C 3.5163746607695128 -0.6378961245731034 1.8513485782556591 -0.1936440620691129 1.109347439303071 -1.1117013756434417 Z M 4.199634276769238 -1.791031792783445 L 3.907750932904085 -1.4990081203875874 C 3.841684260648454 -1.4329133824258147 3.742471989440442 -1.5064735982210613 3.7207771985935416 -1.5631382589194982 C 3.7153175114331862 -1.5255725608917938 3.7241727439876633 -1.487326771420081 3.74558728282208 -1.4559833928736179 C 3.7107858072073885 -1.4875011808698266 3.670707978838211 -1.5391701458751865 3.6762649886541054 -1.5945999155034247 C 3.6786916332949517 -1.627357064489487 3.6908713353708484 -1.6586371982317587 3.711234858505642 -1.6844101751542402 C 3.8004231740216006 -1.7909693342897524 3.8988689399294927 -1.8894244920852523 4.005419590274348 -1.9786229726290896 C 4.065536332828113 -2.025548833296639 4.173589301470501 -2.045503550362805 4.241171521857741 -1.9517640918522654 C 4.212202706088182 -1.9703557898932191 4.177920331833371 -1.9788967956770704 4.1436151273120405 -1.976068993370268 C 4.198764239878871 -1.9489855869443182 4.262276932875682 -1.8536744488898893 4.199634276769238 -1.791031792783445 Z M 4.808912691381605 -1.791031792783445 L 4.517029347516452 -1.4990081203875874 C 4.450962675260819 -1.4329133824258147 4.351750404052808 -1.5064735982210613 4.3300836789120485 -1.5631382589194982 C 4.324613042211425 -1.5255760006687984 4.333458418071238 -1.4873295170529803 4.354865697434446 -1.4559833928736179 C 4.320092287525895 -1.4875011808698266 4.279986393450578 -1.5391701458751865 4.285543403266473 -1.5945999155034247 C 4.287983580122949 -1.627353999558407 4.300161791679253 -1.6586303053209837 4.320513273118009 -1.6844101751542406 C 4.409711793013307 -1.790969368468184 4.508166877278914 -1.88942445273379 4.614726070592856 -1.9786229726290883 C 4.67481474744048 -2.025548833296639 4.782867716082869 -2.045503550362805 4.850478002176249 -1.9517640918522654 C 4.82150918640669 -1.9703557898932191 4.7872268121518795 -1.9788967956770704 4.75292160763055 -1.976068993370268 C 4.808014588785097 -1.9489855869443182 4.871695676018754 -1.8536744488898893 4.808912691381605 -1.791031792783445 Z M 3.1121723609285574 -3.390075400160089 C 3.2559648082872954 -3.263507957120905 3.3697659752938813 -3.1065064481992666 3.445312292820804 -2.9304713963970364 C 3.336698010055598 -3.1067801623740454 3.04815448522121 -3.367257981067554 2.824498872984536 -3.4602396655122893 L 5.720402629718968 -3.4602396655122893 C 5.496747017482295 -3.367257981067554 5.208203492647906 -3.1067801623740454 5.0995892098827005 -2.9304713963970364 C 5.175135527409623 -3.1065064481992666 5.288936694416209 -3.2635079571209045 5.432729141774947 -3.390075400160089 Z M 5.0776137619743915 -1.6457636977982495 C 5.033803194688478 -1.8552180627276373 5.039444401622793 -1.8875778219080723 5.041493198171078 -2.037953875410908 C 5.051071504945245 -1.9085607222798329 5.077004893294643 -1.7809024393395458 5.118673890058497 -1.6580284113818173 C 5.3359024555889105 -0.9938254098517452 6.074367315567748 -0.5936926374012179 6.7664956947079915 -0.796888349861189 C 7.109963806460083 -0.9079162833545111 7.318155214613131 -1.0726058469891955 7.514699354717714 -1.353992616757659 C 7.663447597264379 -1.5875273575559228 7.711159297703875 -1.761759261278506 7.742705151406224 -2.0379538754109077 C 7.753931433862577 -1.1989576560354376 7.1651409847330525 -0.8008456144270535 6.7977328256427905 -0.693185565670638 C 6.043326644575934 -0.4633835637891104 5.247776138306547 -0.915662418249394 5.0776137619743915 -1.6457636977982495 Z" fill="#ffffff" transform="matrix(1,0,0,1,0,0)" fill-rule="nonzero"></path></g><g clip-path="url(#SvgjsClipPath10007cdc3375-cc1a-489d-a06a-7778d30165f0)"><path d=" M 7.099298838126549 -2.193802741611215 C 7.1832139572351155 -2.192351226947582 7.265352849987725 -2.169390990573441 7.337857340324028 -2.1271186238204844 C 7.302928374963546 -2.2290718468423405 7.207069392109064 -2.297559339320295 7.099298838126549 -2.297559339320295 C 6.991528284144033 -2.297559339320295 6.8956693012895505 -2.2290718468423405 6.860740335929068 -2.1271186238204844 C 6.933247778863332 -2.1693840106847047 7.015384813755479 -2.1923437277322035 7.099298838126549 -2.193802741611215 Z" fill="#ffffff" transform="matrix(1,0,0,1,0,0)" fill-rule="nonzero"></path></g></g></g><defs><clipPath id="SvgjsClipPath1002"><path d=" M 0.5720294952359213 -3.8108084009180225 h 7.395313568121908 v 3.5608084009180225 h -7.395313568121908 Z"></path></clipPath><clipPath id="SvgjsClipPath10007cdc3375-cc1a-489d-a06a-7778d30165f0"><path d=" M 0.5720294952359213 -3.810808400918023 L 7.96734306335783 -3.810808400918023 L 7.96734306335783 -0.25 L 0.5720294952359213 -0.25 Z"></path></clipPath></defs></svg>